<svg class="icon" style="width: 1em;height: 1em;vertical-align: middle;fill: currentColor;overflow: hidden;" viewBox="0 0 1024 1024" version="1.1" xmlns="http://www.w3.org/2000/svg" p-id="38603"><path d="M548.8 959c-19.9 0-36-16.1-36-36V413.6c0-8.6 3.1-17 8.7-23.5l218-253h-565l200.8 254.2c5 6.4 7.8 14.2 7.8 22.3v312.6c0 19.9-16.1 36-36 36s-36-16.1-36-36V426.1L72 123.5c-8.6-10.8-10.2-25.6-4.2-38s18.6-20.3 32.4-20.3h717.9c14.1 0 26.9 8.2 32.7 21 5.9 12.8 3.7 27.8-5.5 38.5L584.8 427v496c0 19.9-16.1 36-36 36z" fill="#333333" p-id="38604"></path><path d="M923.4 521.6H710.1c-19.9 0-36-16.1-36-36s16.1-36 36-36h213.3c19.9 0 36 16.1 36 36s-16.1 36-36 36zM923.4 704.4H710.1c-19.9 0-36-16.1-36-36s16.1-36 36-36h213.3c19.9 0 36 16.1 36 36s-16.1 36-36 36z" fill="#333333" p-id="38605"></path></svg>